<?xml version="1.0" encoding="UTF-8" standalone="no"?>
<!-- Created with Inkscape (http://www.inkscape.org/) -->

<svg
   xmlns:dc="http://purl.org/dc/elements/1.1/"
   xmlns:cc="http://creativecommons.org/ns#"
   xmlns:rdf="http://www.w3.org/1999/02/22-rdf-syntax-ns#"
   xmlns:svg="http://www.w3.org/2000/svg"
   xmlns="http://www.w3.org/2000/svg"
   xmlns:xlink="http://www.w3.org/1999/xlink"
   xmlns:sodipodi="http://sodipodi.sourceforge.net/DTD/sodipodi-0.dtd"
   xmlns:inkscape="http://www.inkscape.org/namespaces/inkscape"
   width="138.91626mm"
   height="136.55063mm"
   viewBox="0 0 138.91626 136.55063"
   version="1.1"
   id="svg8"
   inkscape:version="0.92.4 (5da689c313, 2019-01-14)"
   sodipodi:docname="hugorama_logo.svg">
  <defs
     id="defs2">
    <linearGradient
       inkscape:collect="always"
       id="linearGradient5994">
      <stop
         style="stop-color:#c12000;stop-opacity:1;"
         offset="0"
         id="stop5990" />
      <stop
         style="stop-color:#c12000;stop-opacity:0;"
         offset="1"
         id="stop5992" />
    </linearGradient>
    <radialGradient
       inkscape:collect="always"
       xlink:href="#linearGradient5994"
       id="radialGradient5998"
       cx="45.459698"
       cy="296.2424"
       fx="45.459698"
       fy="296.2424"
       r="36.464714"
       gradientTransform="matrix(1,0,0,1.1157803,0,-34.299037)"
       gradientUnits="userSpaceOnUse" />
    <linearGradient
       inkscape:collect="always"
       xlink:href="#linearGradient5994"
       id="linearGradient43"
       gradientUnits="userSpaceOnUse"
       x1="8.4949837"
       y1="296.2424"
       x2="80.816513"
       y2="296.2424"
       gradientTransform="matrix(1.0007432,0,0,0.88496976,28.526422,27.128338)" />
    <linearGradient
       inkscape:collect="always"
       xlink:href="#linearGradient5994"
       id="linearGradient867"
       gradientUnits="userSpaceOnUse"
       x1="8.4949837"
       y1="296.2424"
       x2="80.816513"
       y2="296.2424" />
    <linearGradient
       inkscape:collect="always"
       xlink:href="#linearGradient5994"
       id="linearGradient4600"
       gradientUnits="userSpaceOnUse"
       gradientTransform="matrix(1.1788722,0,0,0.93685263,56.60277,-161.17303)"
       x1="8.4949837"
       y1="296.2424"
       x2="80.816513"
       y2="296.2424" />
  </defs>
  <sodipodi:namedview
     id="base"
     pagecolor="#ffffff"
     bordercolor="#666666"
     borderopacity="1.0"
     inkscape:pageopacity="0.0"
     inkscape:pageshadow="2"
     inkscape:zoom="1"
     inkscape:cx="490.96217"
     inkscape:cy="223.46682"
     inkscape:document-units="mm"
     inkscape:current-layer="layer1"
     showgrid="true"
     inkscape:window-width="2560"
     inkscape:window-height="1387"
     inkscape:window-x="-8"
     inkscape:window-y="-8"
     inkscape:window-maximized="1"
     inkscape:snap-page="false"
     inkscape:snap-grids="true"
     inkscape:snap-nodes="false"
     showborder="false">
    <inkscape:grid
       type="xygrid"
       id="grid879" />
  </sodipodi:namedview>
  <metadata
     id="metadata5">
    <rdf:RDF>
      <cc:Work
         rdf:about="">
        <dc:format>image/svg+xml</dc:format>
        <dc:type
           rdf:resource="http://purl.org/dc/dcmitype/StillImage" />
        <dc:title></dc:title>
      </cc:Work>
    </rdf:RDF>
  </metadata>
  <g
     inkscape:label="Layer 1"
     inkscape:groupmode="layer"
     id="layer1"
     style="opacity:1"
     transform="translate(-42.988359,-69.896445)">
    <path
       inkscape:connector-curvature="0"
       id="path864"
       d="m 136.48699,78.245 c -4.88364,0 -9.00314,1.32025 -12.35857,3.96041 -3.35542,2.64017 -5.03302,5.88741 -5.03302,9.74205 0,3.72263 1.66094,6.89095 4.98314,9.50471 3.35542,2.58736 7.37527,3.88091 12.05957,3.88091 4.71753,0 8.73769,-1.31996 12.0599,-3.96012 3.3222,-2.64016 4.98314,-5.82155 4.98314,-9.54417 0,-3.72263 -1.62793,-6.91736 -4.88369,-9.58392 C 145.07492,79.5783 141.13808,78.245 136.48699,78.245 Z m -67.18738,0.31683 v 6.574 h -2.09296 l 0.89698,1.901 h 1.19598 v 17.93996 h 2.44185 V 87.03683 h 6.07967 v 17.93996 h 2.44184 V 78.56183 h -2.44184 v 6.574 h -6.07967 v -6.574 z m 15.71295,0 v 21.58355 c 0,1.53129 0.49831,2.78539 1.49497,3.76225 0.99666,0.95045 2.42527,1.42545 4.2857,1.42545 1.82722,0 3.20615,-0.475 4.13637,-1.42545 0.96344,-0.97686 1.44509,-2.20456 1.44509,-3.68305 V 78.56183 h -2.39195 v 21.5438 c 0,1.00325 -0.24933,1.80847 -0.74766,2.41571 -0.49833,0.58084 -1.3453,0.87129 -2.54129,0.87129 -1.196,0 -2.04329,-0.30352 -2.54162,-0.91075 -0.46511,-0.63364 -0.69776,-1.43885 -0.69776,-2.41571 V 78.56183 Z m 31.15897,0 c -4.65109,0 -8.57126,1.26744 -11.76057,3.802 -3.1561,2.50816 -4.73404,5.62338 -4.73404,9.346 0,3.77544 1.61127,6.87759 4.83381,9.30654 2.98998,2.24414 6.87683,3.5644 11.6608,3.96042 V 85.17558 h -2.44185 v 17.58338 c -3.48831,-0.60724 -6.29553,-1.9008 -8.42174,-3.88092 -2.12621,-1.98013 -3.18917,-4.35629 -3.18917,-7.12846 0,-3.27379 1.34528,-5.96683 4.03626,-8.07895 2.72421,-2.13855 6.06308,-3.2078 10.0165,-3.2078 z m 19.56813,1.62363 c 4.28565,0 7.85685,1.10901 10.71394,3.32674 2.8571,2.21774 4.28571,5.02944 4.28571,8.43526 0,3.16819 -1.44528,5.87428 -4.3356,8.11842 -2.85709,2.21773 -6.2953,3.32675 -10.31516,3.32675 -4.08631,0 -7.5415,-1.12208 -10.36538,-3.36621 -2.82387,-2.24414 -4.23581,-4.98997 -4.23581,-8.23738 0,-3.1682 1.37861,-5.88763 4.13604,-8.15816 2.79065,-2.29695 6.16285,-3.44542 10.11626,-3.44542 z m -29.03782,47.4043 -5.48168,26.88992 h 2.54129 l 3.98672,-20.47434 3.9867,7.48476 3.88694,-7.36609 4.08648,20.35567 h 2.49141 l -5.48169,-26.88992 -4.98314,9.14812 z m -13.48458,0.11866 c -2.35876,0 -3.90369,0.75269 -4.63458,2.25759 -0.39866,0.81845 -0.59799,2.33631 -0.59799,4.55404 h -2.09296 l 0.79721,1.94076 h 1.29575 v 18.01887 h 2.44185 v -18.01887 h 5.63102 v 18.01887 h 2.39228 v -21.66246 c 0,-1.55769 -0.36564,-2.75898 -1.09653,-3.60383 -0.86377,-1.00326 -2.24238,-1.50497 -4.13605,-1.50497 z m 37.08284,0 c -2.35877,0 -3.90371,0.75269 -4.63459,2.25759 -0.39867,0.81845 -0.59799,2.33631 -0.59799,4.55404 h -2.09296 l 0.79721,1.94076 h 1.29575 v 18.01887 h 2.44185 v -18.01887 h 5.63102 v 18.01887 h 2.39196 v -21.66246 c 0,-1.55769 -0.36532,-2.75898 -1.09621,-3.60383 -0.86377,-1.00326 -2.24239,-1.50497 -4.13604,-1.50497 z m -61.2496,0.35659 v 26.41467 h 2.44185 v -5.70271 l 8.57141,5.70271 h 3.88693 l -8.8704,-5.86112 c 2.89032,-0.87125 5.14956,-2.17816 6.77743,-3.92067 1.62789,-1.74251 2.44185,-3.80182 2.44185,-6.17796 0,-2.95699 -1.31228,-5.43876 -3.93682,-7.4453 -2.62454,-2.00652 -5.78075,-3.00962 -9.46839,-3.00962 z m 24.3161,1.58417 c 0.86377,0 1.52841,0.23764 1.99352,0.71287 0.46511,0.47523 0.69744,1.0692 0.69744,1.78204 v 2.37596 h -5.63102 v -2.37596 c 0,-0.73924 0.24931,-1.33322 0.74765,-1.78204 0.53155,-0.47523 1.26219,-0.71287 2.19241,-0.71287 z m 37.08283,0 c 0.86378,0 1.52841,0.23764 1.99352,0.71287 0.4651,0.47523 0.69744,1.0692 0.69744,1.78204 v 2.37596 h -5.63102 v -2.37596 c 0,-0.73924 0.249,-1.33322 0.74732,-1.78204 0.53156,-0.47523 1.26253,-0.71287 2.19274,-0.71287 z m -58.95708,0.27707 c 3.0232,0.23763 5.49811,1.1618 7.42499,2.7723 1.9601,1.5841 2.94038,3.57725 2.94038,5.9798 0,2.34975 -1.01329,4.31677 -3.03983,5.90087 -1.89366,1.5049 -4.33556,2.38931 -7.32554,2.65334 z"
       style="font-style:normal;font-variant:normal;font-weight:normal;font-stretch:normal;font-size:42.27180099px;line-height:1.25;font-family:'AR BONNIE';-inkscape-font-specification:'AR BONNIE, weight=101';font-variant-ligatures:normal;font-variant-caps:normal;font-variant-numeric:normal;font-feature-settings:normal;text-align:start;letter-spacing:0px;word-spacing:0px;writing-mode:lr-tb;text-anchor:start;fill:#c72100;fill-opacity:0.75304877;stroke:url(#linearGradient4600);stroke-width:1.05095506;stroke-linecap:round;stroke-linejoin:bevel;stroke-miterlimit:4;stroke-dasharray:none;stroke-opacity:1;paint-order:normal" />
    <flowRoot
       xml:space="preserve"
       id="flowRoot6018"
       style="font-style:normal;font-weight:normal;font-size:40px;line-height:1.25;font-family:sans-serif;letter-spacing:0px;word-spacing:0px;fill:#000000;fill-opacity:1;stroke:none"><flowRegion
         id="flowRegion6020"><rect
           id="rect6022"
           width="128.57143"
           height="168.57143"
           x="28.571428"
           y="33.948257" /></flowRegion><flowPara
         id="flowPara6024" /></flowRoot>    <flowRoot
       xml:space="preserve"
       id="flowRoot6034"
       style="font-style:normal;font-weight:normal;font-size:40px;line-height:1.25;font-family:sans-serif;letter-spacing:0px;word-spacing:0px;fill:#000000;fill-opacity:1;stroke:none"><flowRegion
         id="flowRegion6036"><rect
           id="rect6038"
           width="677.14288"
           height="648.57141"
           x="205.71428"
           y="105.37683" /></flowRegion><flowPara
         id="flowPara6040" /></flowRoot>    <flowRoot
       xml:space="preserve"
       id="flowRoot6042"
       style="font-style:normal;font-weight:normal;font-size:40px;line-height:1.25;font-family:sans-serif;letter-spacing:0px;word-spacing:0px;fill:#000000;fill-opacity:1;stroke:none"><flowRegion
         id="flowRegion6044"><rect
           id="rect6046"
           width="20"
           height="60"
           x="914.28571"
           y="773.94824" /></flowRegion><flowPara
         id="flowPara6048" /></flowRoot>    <flowRoot
       xml:space="preserve"
       id="flowRoot6050"
       style="font-style:normal;font-weight:normal;font-size:40px;line-height:1.25;font-family:sans-serif;letter-spacing:0px;word-spacing:0px;fill:#000000;fill-opacity:1;stroke:none"><flowRegion
         id="flowRegion6052"><rect
           id="rect6054"
           width="680"
           height="648.57141"
           x="34.285713"
           y="265.37683" /></flowRegion><flowPara
         id="flowPara6056" /></flowRoot>    <flowRoot
       xml:space="preserve"
       id="flowRoot6058"
       style="font-style:normal;font-weight:normal;font-size:40px;line-height:1.25;font-family:sans-serif;letter-spacing:0px;word-spacing:0px;fill:#000000;fill-opacity:1;stroke:none"><flowRegion
         id="flowRegion6060"><rect
           id="rect6062"
           width="597.14288"
           height="948.57141"
           x="174.28572"
           y="65.376831" /></flowRegion><flowPara
         id="flowPara6064" /></flowRoot>  </g>
</svg>
